<svg width="122" height="86" viewBox="0 0 122 86" fill="none" xmlns="http://www.w3.org/2000/svg">
<path d="M106.596 82.2396C106.752 80.9395 106.993 79.4904 107.148 78.1903L105.464 78.0122C105.309 79.3123 105.154 80.6125 104.999 81.9126L106.596 82.2396ZM107.166 74.032C107.172 72.6459 106.944 71.3227 106.715 69.9995L105.008 70.2052C105.237 71.5284 105.317 72.7656 105.396 74.0028L107.166 74.032ZM105.645 66.007C105.182 64.7468 104.804 63.3376 104.341 62.0774L102.759 62.7527C103.223 64.013 103.687 65.2732 104.001 66.4475L105.645 66.007ZM102.715 58.3596C102.017 57.1623 101.318 55.965 100.62 54.7676L99.2506 55.7638C100.035 56.8122 100.584 57.9236 101.283 59.1209L102.715 58.3596ZM98.0319 51.6853C97.2476 50.6369 96.2283 49.6514 95.2091 48.6659L94.0517 49.9829C94.922 50.8824 95.9412 51.8679 96.7256 52.9164L98.0319 51.6853ZM92.2144 45.9443C91.1092 45.1077 90.004 44.2711 88.8129 43.5834L87.9533 45.0723C88.9955 45.6741 90.1007 46.5106 91.2059 47.3472L92.2144 45.9443ZM84.5917 43.33L85.3024 41.7551C84.1742 41.3023 83.046 40.8494 81.8318 40.5455L81.4481 40.5224L80.8862 42.1833L81.2699 42.2063C82.3352 42.4243 83.4635 42.8771 84.5917 43.33ZM77.0948 41.1854L77.5077 39.4386C76.2076 39.2836 74.8445 38.8936 73.4584 38.8875L73.2803 40.5713C74.5805 40.7264 75.8806 40.8815 77.0948 41.1854ZM69.294 40.255L69.3232 38.4852C67.9371 38.479 66.6369 38.324 65.2508 38.3178L65.2216 40.0876C66.7566 40.1798 67.9079 40.2489 69.294 40.255ZM61.3611 40.2411L61.3903 38.4712C60.3879 38.4881 59.1507 38.5679 58.1484 38.5847L57.5298 38.6246L57.5006 40.3944L58.1192 40.3546C59.1215 40.3377 60.3587 40.2579 61.3611 40.2411ZM53.4911 40.4619L53.5203 38.6921C52.1342 38.6859 50.897 38.7657 49.5109 38.7595L49.4817 40.5294C50.7189 40.4496 52.0191 40.6046 53.4911 40.4619ZM45.4094 40.3619L45.5875 38.6781C44.2014 38.6719 42.9013 38.5168 41.6871 38.2129L41.509 39.8968C42.5742 40.1148 43.8744 40.2698 45.4094 40.3619ZM37.3108 39.2596L37.7237 37.5128C37.0422 37.3179 36.1258 37.1858 35.4443 36.9909C34.9116 36.8819 34.4649 36.624 33.9323 36.515L33.3705 38.1759C33.9031 38.2849 34.3498 38.5427 34.8824 38.6517C35.7128 38.9326 36.4803 38.9787 37.3108 39.2596ZM29.5391 36.5594L30.2499 34.9845C29.6543 34.6407 28.9098 34.2108 28.3143 33.867C27.8676 33.6091 27.272 33.2652 26.8253 33.0074L25.9657 34.4963C26.4124 34.7542 27.008 35.098 27.4546 35.3559C28.1991 35.7857 28.9436 36.2155 29.5391 36.5594ZM23.8076 30.6695C22.8513 29.9189 21.8321 28.9334 20.9617 28.0338L19.6555 29.2649C20.6747 30.2504 21.545 31.1499 22.6502 31.9865L23.8076 30.6695ZM18.3508 25.3353C17.5664 24.2868 16.7821 23.2384 15.9977 22.19L14.4796 23.1002C15.178 24.2975 15.9623 25.3459 16.8956 26.4803L18.3508 25.3353ZM14.0514 18.684C13.5019 17.5726 13.0384 16.3124 12.4889 15.2011L10.9078 15.8764C11.3714 17.1367 11.8349 18.3969 12.5333 19.5942L14.0514 18.684ZM11.3331 11.3574C11.0185 10.1831 10.7898 8.85993 10.5611 7.53676L8.85418 7.74242C9.08286 9.06559 9.31155 10.3887 9.68913 11.7979L11.3331 11.3574Z" fill="black"/>
<path d="M99.313 75.2553L100.831 74.345L105.726 81.3401L112.36 76.0384L113.357 77.4076L105.267 83.8544L99.313 75.2553Z" fill="black"/>
</svg>
